<svg width="511.999" height="511.999" xmlns="http://www.w3.org/2000/svg">

 <g>
  <title>background</title>
  <rect fill="none" id="canvas_background" height="513.999" width="513.999" y="-1" x="-1"/>
 </g>
 <g>
  <title>Layer 1</title>
  <g id="svg_1">
   <g id="svg_2">
    <g id="svg_3">
     <path id="svg_4" fill="#ffffff" class="active-path" d="m239.12,1.187l-211.283,0c-15.349,0.001 -27.837,12.488 -27.837,27.837l0,91.334c0,4.142 3.358,7.5 7.5,7.5s7.5,-3.358 7.5,-7.5l0,-91.334c0,-7.078 5.759,-12.837 12.837,-12.837l211.283,0c7.078,0 12.837,5.759 12.837,12.837l0,137.376l-236.957,0l0,-15.424c0,-4.142 -3.358,-7.5 -7.5,-7.5s-7.5,3.358 -7.5,7.5l0,46.32c0,9.097 7.401,16.499 16.499,16.499l74.931,0c-2.901,7.76 -7.854,16.238 -16.343,22.681c-4.044,3.069 -5.673,8.365 -4.054,13.178c1.621,4.817 6.124,8.053 11.206,8.053l20.786,0c4.142,0 7.5,-3.358 7.5,-7.5c0,-4.142 -3.358,-7.5 -7.5,-7.5l-12.358,0c8.966,-9.084 13.881,-19.783 16.574,-28.912l52.475,0c2.693,9.13 7.608,19.828 16.574,28.912l-42.648,0c-4.142,0 -7.5,3.358 -7.5,7.5c0,4.142 3.358,7.5 7.5,7.5l51.077,0c5.082,0 9.585,-3.237 11.206,-8.054c1.619,-4.813 -0.01,-10.109 -4.055,-13.177c-8.489,-6.442 -13.442,-14.92 -16.343,-22.681l74.931,0c9.097,0 16.499,-7.401 16.499,-16.499l0,-168.272c0,-15.349 -12.488,-27.837 -27.837,-27.837zm12.837,196.108c0,0.826 -0.672,1.499 -1.499,1.499l-84.978,0c-0.008,0 -0.015,0 -0.023,0l-148.958,0c-0.827,0 -1.499,-0.672 -1.499,-1.499l0,-15.896l236.957,0l0,15.896z"/>
    </g>
   </g>
   <g id="svg_5">
    <g id="svg_6">
     <path id="svg_7" fill="#ffffff" class="active-path" d="m96.344,87.403c-4.142,0 -7.5,3.358 -7.5,7.5l0,1.616c0,4.142 3.358,7.5 7.5,7.5c4.142,0 7.5,-3.358 7.5,-7.5l0,-1.616c0,-4.142 -3.358,-7.5 -7.5,-7.5z"/>
    </g>
   </g>
   <g id="svg_8">
    <g id="svg_9">
     <path id="svg_10" fill="#ffffff" class="active-path" d="m133.479,87.403c-4.142,0 -7.5,3.358 -7.5,7.5l0,1.616c0,4.142 3.358,7.5 7.5,7.5c4.142,0 7.5,-3.358 7.5,-7.5l0,-1.616c0,-4.142 -3.358,-7.5 -7.5,-7.5z"/>
    </g>
   </g>
   <g id="svg_11">
    <g id="svg_12">
     <path id="svg_13" fill="#ffffff" class="active-path" d="m170.613,87.403c-4.142,0 -7.5,3.358 -7.5,7.5l0,1.616c0,4.142 3.358,7.5 7.5,7.5c4.142,0 7.5,-3.358 7.5,-7.5l0,-1.616c0,-4.142 -3.358,-7.5 -7.5,-7.5z"/>
    </g>
   </g>
   <g id="svg_14">
    <g id="svg_15">
     <path id="svg_16" fill="#ffffff" class="active-path" d="m484.163,254.292l-31.854,0c-4.143,0 -7.5,3.358 -7.5,7.5c0,4.142 3.357,7.5 7.5,7.5l31.854,0c7.078,0 12.837,5.759 12.837,12.837l0,137.376l-236.957,0l0,-137.377c0,-7.078 5.759,-12.837 12.837,-12.837l148.812,0c4.143,0 7.5,-3.358 7.5,-7.5c0,-4.142 -3.357,-7.5 -7.5,-7.5l-148.812,0c-15.35,0 -27.837,12.488 -27.837,27.837l0,168.272c0,9.097 7.401,16.499 16.498,16.499l74.928,0c-2.854,7.605 -7.793,16.196 -16.34,22.681c-4.044,3.069 -5.673,8.365 -4.054,13.178c1.621,4.817 6.124,8.054 11.206,8.054l102.48,0c5.081,0 9.585,-3.237 11.206,-8.054c1.619,-4.813 -0.01,-10.108 -4.054,-13.178c-8.49,-6.443 -13.444,-14.921 -16.344,-22.681l74.932,0c9.097,0 16.498,-7.401 16.498,-16.499l0,-168.272c0.001,-15.349 -12.486,-27.836 -27.836,-27.836zm-62.83,241.521l-85.632,0c9.079,-9.216 13.955,-20.064 16.577,-28.913l52.481,0c2.693,9.129 7.608,19.827 16.574,28.913zm75.667,-45.412c0,0.826 -0.672,1.499 -1.498,1.499l-233.961,0c-0.826,0 -1.498,-0.672 -1.498,-1.499l0,-15.896l236.957,0l0,15.896z"/>
    </g>
   </g>
   <g id="svg_17">
    <g id="svg_18">
     <path id="svg_19" fill="#ffffff" class="active-path" d="m341.387,340.508c-4.143,0 -7.5,3.358 -7.5,7.5l0,1.616c0,4.142 3.357,7.5 7.5,7.5s7.5,-3.358 7.5,-7.5l0,-1.616c0,-4.143 -3.357,-7.5 -7.5,-7.5z"/>
    </g>
   </g>
   <g id="svg_20">
    <g id="svg_21">
     <path id="svg_22" fill="#ffffff" class="active-path" d="m378.521,340.508c-4.143,0 -7.5,3.358 -7.5,7.5l0,1.616c0,4.142 3.357,7.5 7.5,7.5s7.5,-3.358 7.5,-7.5l0,-1.616c0,-4.143 -3.357,-7.5 -7.5,-7.5z"/>
    </g>
   </g>
   <g id="svg_23">
    <g id="svg_24">
     <path id="svg_25" fill="#ffffff" class="active-path" d="m415.656,340.508c-4.143,0 -7.5,3.358 -7.5,7.5l0,1.616c0,4.142 3.357,7.5 7.5,7.5s7.5,-3.358 7.5,-7.5l0,-1.616c0,-4.143 -3.357,-7.5 -7.5,-7.5z"/>
    </g>
   </g>
   <g id="svg_26">
    <g id="svg_27">
     <path id="svg_28" fill="#ffffff" class="active-path" d="m306.138,103.601l-12.238,0c-4.143,0 -7.5,3.358 -7.5,7.5c0,4.142 3.358,7.5 7.5,7.5l12.238,0c4.143,0 7.5,-3.358 7.5,-7.5c0,-4.142 -3.357,-7.5 -7.5,-7.5z"/>
    </g>
   </g>
   <g id="svg_29">
    <g id="svg_30">
     <path id="svg_31" fill="#ffffff" class="active-path" d="m342.33,103.601l-12.238,0c-4.143,0 -7.5,3.358 -7.5,7.5c0,4.142 3.357,7.5 7.5,7.5l12.238,0c4.143,0 7.5,-3.358 7.5,-7.5c0,-4.142 -3.357,-7.5 -7.5,-7.5z"/>
    </g>
   </g>
   <g id="svg_32">
    <g id="svg_33">
     <path id="svg_34" fill="#ffffff" class="active-path" d="m378.521,103.601l-12.238,0c-4.143,0 -7.5,3.358 -7.5,7.5c0,4.142 3.358,7.5 7.5,7.5l12.238,0c4.143,0 7.5,-3.358 7.5,-7.5c0,-4.142 -3.357,-7.5 -7.5,-7.5z"/>
    </g>
   </g>
   <g id="svg_35">
    <g id="svg_36">
     <path id="svg_37" fill="#ffffff" class="active-path" d="m378.521,126.842c-4.143,0 -7.5,3.358 -7.5,7.5l0,12.238c0,4.142 3.357,7.5 7.5,7.5s7.5,-3.358 7.5,-7.5l0,-12.238c0,-4.142 -3.357,-7.5 -7.5,-7.5z"/>
    </g>
   </g>
   <g id="svg_38">
    <g id="svg_39">
     <path id="svg_40" fill="#ffffff" class="active-path" d="m378.521,164.656c-4.143,0 -7.5,3.358 -7.5,7.5l0,12.238c0,4.142 3.357,7.5 7.5,7.5s7.5,-3.358 7.5,-7.5l0,-12.238c0,-4.142 -3.357,-7.5 -7.5,-7.5z"/>
    </g>
   </g>
   <g id="svg_41">
    <g id="svg_42">
     <path id="svg_43" fill="#ffffff" class="active-path" d="m378.521,202.469c-4.143,0 -7.5,3.358 -7.5,7.5l0,12.238c0,4.142 3.357,7.5 7.5,7.5s7.5,-3.358 7.5,-7.5l0,-12.238c0,-4.141 -3.357,-7.5 -7.5,-7.5z"/>
    </g>
   </g>
   <g id="svg_44">
    <g id="svg_45">
     <path id="svg_46" fill="#ffffff" class="active-path" d="m220.516,396.062l-12.238,0c-4.142,0 -7.5,3.358 -7.5,7.5c0,4.142 3.358,7.5 7.5,7.5l12.238,0c4.142,0 7.5,-3.358 7.5,-7.5c0,-4.143 -3.358,-7.5 -7.5,-7.5z"/>
    </g>
   </g>
   <g id="svg_47">
    <g id="svg_48">
     <path id="svg_49" fill="#ffffff" class="active-path" d="m184.324,396.062l-12.238,0c-4.142,0 -7.5,3.358 -7.5,7.5c0,4.142 3.358,7.5 7.5,7.5l12.238,0c4.142,0 7.5,-3.358 7.5,-7.5c0,-4.143 -3.358,-7.5 -7.5,-7.5z"/>
    </g>
   </g>
   <g id="svg_50">
    <g id="svg_51">
     <path id="svg_52" fill="#ffffff" class="active-path" d="m148.133,396.062l-12.238,0c-4.142,0 -7.5,3.358 -7.5,7.5c0,4.142 3.358,7.5 7.5,7.5l12.238,0c4.142,0 7.5,-3.358 7.5,-7.5c0,-4.143 -3.358,-7.5 -7.5,-7.5z"/>
    </g>
   </g>
   <g id="svg_53">
    <g id="svg_54">
     <path id="svg_55" fill="#ffffff" class="active-path" d="m135.895,360.583c-4.142,0 -7.5,3.358 -7.5,7.5l0,12.238c0,4.142 3.358,7.5 7.5,7.5c4.142,0 7.5,-3.358 7.5,-7.5l0,-12.238c0,-4.143 -3.358,-7.5 -7.5,-7.5z"/>
    </g>
   </g>
   <g id="svg_56">
    <g id="svg_57">
     <path id="svg_58" fill="#ffffff" class="active-path" d="m135.895,322.768c-4.142,0 -7.5,3.358 -7.5,7.5l0,12.238c0,4.142 3.358,7.5 7.5,7.5c4.142,0 7.5,-3.358 7.5,-7.5l0,-12.238c0,-4.143 -3.358,-7.5 -7.5,-7.5z"/>
    </g>
   </g>
   <g id="svg_59">
    <g id="svg_60">
     <path id="svg_61" fill="#ffffff" class="active-path" d="m135.895,284.953c-4.142,0 -7.5,3.358 -7.5,7.5l0,12.238c0,4.142 3.358,7.5 7.5,7.5c4.142,0 7.5,-3.358 7.5,-7.5l0,-12.238c0,-4.142 -3.358,-7.5 -7.5,-7.5z"/>
    </g>
   </g>
  </g>
 </g>
</svg>