<!--?xml version="1.0" encoding="utf-8"?-->
<!-- Generator: Adobe Illustrator 18.1.1, SVG Export Plug-In . SVG Version: 6.00 Build 0)  -->

<svg version="1.1" id="_x31_0" xmlns="http://www.w3.org/2000/svg" xmlns:xlink="http://www.w3.org/1999/xlink" x="0px" y="0px" viewBox="0 0 512 512" style="width: 256px; height: 256px; opacity: 1;" xml:space="preserve">
<style type="text/css">
	.st0{fill:#374149;}
</style>
<g>
	<path class="st0" d="M146.668,250.142c-12.535,0-22.699,10.164-22.699,22.699c0,12.539,10.164,22.703,22.699,22.703
		c12.539,0,22.703-10.164,22.703-22.703C169.371,260.306,159.207,250.142,146.668,250.142z" style="fill: rgb(255, 255, 255);"></path>
	<path class="st0" d="M502.168,292.967l-0.61-0.798c-0.004,0-0.008,0-0.008,0l-0.098-0.121c-3.355,2.965-7.113,5.34-11.109,7.145
		c-0.086,0.039-0.164,0.082-0.25,0.117c-1.965,0.875-3.988,1.614-6.05,2.207c-0.094,0.027-0.188,0.05-0.282,0.078
		c-10.274,2.902-21.449,2.305-31.242-1.707c-0.308-0.133-0.629-0.23-0.93-0.371c9.325-12.203,12.066-28.367,7.051-44.086
		c-2.992-9.371-11.324-15.727-21.313-16.371c-9.988,0.644-18.32,7-21.312,16.371c-4.734,14.839-2.477,30.042,5.633,41.969
		c0.476,0.718,0.902,1.465,1.418,2.16c-4.195,1.82-8.687,2.965-13.254,3.492c-0.25,0.023-0.485,0.098-0.742,0.117
		c-0.942-21.91-7.278-42.441-17.699-60.312c-10.145-17.496-24.234-32.344-41.008-43.461c-0.301-0.203-0.578-0.438-0.882-0.637
		c-0.446-0.289-0.926-0.523-1.375-0.809c-20.371-12.977-44.496-20.554-70.379-20.554h-56.804
		c-15.328-18.321-48.981-52.934-93.422-66.555c-3.734-1.148-7.769-0.426-10.867,1.954c-3.07,2.375-4.835,6.113-4.671,9.984
		c0.878,22.891,4.136,45.031,9.691,65.942c-23.02,10.282-42.969,27.187-56.886,48.418c-8.196,12.5-30.446,19.738-47.618,21.18
		c-5.367,0.426-10.281,3.176-13.484,7.504c-3.207,4.351-4.383,9.882-3.234,15.172l11.484,52.746
		c3.446,15.809,17.305,26.918,33.68,27c6.222,0.027,9.133,0.934,10.226,1.387c11.484,33.465,24.367,54.297,60.957,68.394l8,27.242
		c0,12.5,10.176,22.703,22.703,22.703h24.035c12.523,0,22.699-10.203,22.699-22.703l8-17.359h56.086h0.012v17.359
		c0,12.5,10.203,22.703,22.699,22.703h24.039c12.523,0,22.699-10.203,22.699-22.703l8-27.347
		c24.57-10.152,42.57-27.238,54.652-48.442c0.078-0.137,0.16-0.27,0.238-0.406c1.293-2.289,2.515-4.633,3.672-7.015
		c0.102-0.215,0.21-0.422,0.316-0.637c1.16-2.434,2.25-4.914,3.274-7.434c0.066-0.168,0.141-0.328,0.207-0.496
		c5.621-14.012,9.133-29.293,10.562-45.282c7.652-0.507,15.168-2.398,22.094-5.598c2.187-0.949,4.336-2.039,6.454-3.214
		c0.038,0.011,0.074,0.035,0.109,0.05c0.11-0.05,0.215-0.078,0.293-0.156c9.829,6.062,21.313,9.078,32.879,9.078
		c14.981,0,30.016-5.074,41.5-15.278L502.168,292.967z M384.77,317.928c-1.758,20.953-7.656,40.492-18.114,56.57
		c-0.171,0.258-0.332,0.523-0.503,0.777c-1.082,1.633-2.23,3.215-3.41,4.77c-0.324,0.426-0.641,0.859-0.969,1.282
		c-1.133,1.438-2.324,2.836-3.543,4.203c-0.382,0.434-0.762,0.874-1.152,1.301c-1.321,1.43-2.699,2.808-4.118,4.152
		c-0.289,0.27-0.566,0.55-0.855,0.82c-8.844,8.145-19.543,14.622-32.218,18.906c-4.887,1.656-8.172,6.246-8.172,11.375l-8,34.344
		h-21.367v-28.039c0-6.653-5.367-12.02-12.016-12.02h-80.133c-6.625,0-12.019,5.367-12.019,12.02l-8,28.039h-21.367l-8-34.344
		c0-5.129-3.285-9.719-8.172-11.375c-35.117-11.886-44.609-27.965-54.438-57.367c-2.511-7.531-10.175-16.531-32.476-16.641
		c-5.047-0.027-9.297-3.335-10.336-8.09l-9.516-43.726l-0.703-3.282c21.794-2.937,47.344-12.418,59.707-31.297
		c13.114-20.003,32.742-35.308,55.254-43.05c6.145-2.114,9.485-8.734,7.559-14.93c-4.34-14.02-7.442-28.746-9.414-43.957
		c-0.316-2.649-0.676-5.286-0.91-7.969c33.551,15.793,58.406,43.871,68.438,56.492c2.297,2.882,5.742,4.539,9.402,4.539h62.519
		c0.234,0,0.466,0.015,0.696,0.019v61.461c0,7.863,6.378,14.242,14.242,14.242h0.004c7.863,0,14.242-6.379,14.242-14.242v-45.293
		l0.043-12.125c42.14,11.934,73.851,48.98,77.789,93.898c0.293,3.125,0.43,6.305,0.43,9.508
		C385.172,311.943,385.035,314.935,384.77,317.928z M441.813,283.447c-1.133,2.176-2.578,4.234-4.336,6.145
		c-0.047-0.058-0.094-0.122-0.149-0.188c-0.035,0.043-0.074,0.086-0.106,0.126l-0.019-0.024l-0.211,0.25
		c-6.664-7.742-8.874-18.226-5.324-28.606c1.309-3.902,3.39-4.461,5.66-4.515c2.27,0.054,4.352,0.613,5.664,4.515
		C445.649,268.92,445.074,276.752,441.813,283.447z" style="fill: rgb(255, 255, 255);"></path>
	<path class="st0" d="M352.496,121.471c0.082-0.043,0.16-0.09,0.238-0.137c1.321-0.828,2.418-1.887,3.062-3.313
		c1.516-3.367,0.278-7.266-3.699-10.55c-0.566-0.481-1.175-0.934-1.781-1.391c-0.114-0.117-0.282-0.226-0.383-0.347l-0.015,0.035
		c-0.047-0.035-0.086-0.07-0.133-0.102l-6.434,14.305l-0.813,1.754c0.008,0.004,0.012,0,0.019,0.004l-0.066,0.148
		C346.938,123.229,350.164,122.818,352.496,121.471z" style="fill: rgb(255, 255, 255);"></path>
	<path class="st0" d="M345.246,89.076c0.656,0.614,1.469,1.254,2.351,1.91l5.09-11.316l0.746-1.602
		c-0.008-0.004-0.011-0.004-0.023-0.008l0.07-0.149c-5.734-1.683-10.043-0.457-11.653,3.118
		C340.61,83.737,341.859,86.233,345.246,89.076z" style="fill: rgb(255, 255, 255);"></path>
	<path class="st0" d="M319.742,162.646c34.531,15.539,75.125,0.149,90.668-34.386c15.543-34.531,0.148-75.125-34.383-90.668
		c-34.535-15.543-75.125-0.148-90.668,34.386C269.817,106.51,285.211,147.104,319.742,162.646z M317.871,102.975
		c0.094-0.399,0.219-0.871,0.383-1.234c0.336-0.746,0.828-1.34,1.418-1.794c0.004-0.004,0.008-0.007,0.012-0.011
		c0.515-0.394,1.129-0.637,1.754-0.825c0.187-0.054,0.375-0.102,0.57-0.144c1.394-0.27,2.898-0.133,4.16,0.438
		c1.902,0.859,3.188,2.492,2.852,4.804c-1.031,4.754,0.602,9.352,4.656,12.899c0.473,0.437,0.855,0.918,1.394,1.316l0.023-0.047
		c0.047,0.035,0.074,0.078,0.126,0.114l7.863-17.469c-2-1.39-3.985-2.855-5.832-4.546c-7.039-6.246-8.867-13.141-5.77-20.016
		c0.469-1.043,1.031-2.012,1.668-2.91c0.019-0.027,0.035-0.058,0.054-0.086c0.625-0.871,1.336-1.66,2.114-2.379
		c0.109-0.106,0.23-0.191,0.347-0.293c2.394-2.102,5.43-3.496,9.008-3.996c0.125-0.016,0.25-0.031,0.375-0.047
		c3.726-0.453,8,0.031,12.707,1.672l3.359-7.465c0.871-1.942,3.218-2.778,5.238-1.871c2.019,0.91,2.949,3.223,2.078,5.164
		l-3.371,7.493c9.454,5.39,13.672,12.839,12.477,21.046c-0.012,0.61-0.168,1.156-0.398,1.668c-0.578,1.282-1.75,2.054-3.094,2.418
		c-0.141,0.038-0.278,0.074-0.426,0.105c-1.383,0.27-2.902,0.13-4.192-0.449c-0.339-0.156-0.644-0.359-0.945-0.566
		c-0.226-0.16-0.434-0.328-0.629-0.508c-0.497-0.461-0.891-1.004-1.153-1.633c-0.113-0.27-0.187-0.55-0.25-0.844
		c-0.07-0.332-0.157-0.656-0.153-1.027c0.394-3.363-1.058-6.703-4.39-9.535c-0.355-0.32-0.645-0.664-1.043-0.969l-0.019,0.043
		c-0.047-0.035-0.078-0.074-0.125-0.11l-6.426,14.27c1.645,1.149,3.301,2.352,4.832,3.633c8.758,6.934,11.41,14.726,7.227,24.016
		c-1.074,2.386-2.477,4.414-4.172,6.058c-0.106,0.102-0.219,0.191-0.325,0.289c-2.538,2.332-5.73,3.809-9.538,4.282
		c-0.141,0.015-0.282,0.039-0.422,0.05c-3.984,0.41-8.621-0.238-13.882-2.148l-3.355,7.449c-0.871,1.946-3.219,2.782-5.238,1.871
		c-2.024-0.906-2.95-3.218-2.078-5.164l3.371-7.48C319.894,122.374,315.454,113.131,317.871,102.975z" style="fill: rgb(255, 255, 255);"></path>
</g>
</svg>
