<svg width="511.934" height="511.934" xmlns="http://www.w3.org/2000/svg">

 <g>
  <title>background</title>
  <rect fill="none" id="canvas_background" height="402" width="582" y="-1" x="-1"/>
 </g>
 <g>
  <title>Layer 1</title>
  <g id="svg_1">
   <path id="svg_2" fill="#ffffff" class="active-path" d="m296.522,270.387l0,7.976c0,4.142 3.357,7.5 7.5,7.5s7.5,-3.358 7.5,-7.5l0,-7.976c0,-4.142 -3.357,-7.5 -7.5,-7.5c-4.142,0 -7.5,3.357 -7.5,7.5zm-255.285,-3.79c0.566,0 1.141,-0.065 1.716,-0.199c4.033,-0.944 6.537,-4.979 5.593,-9.012c-0.705,-3.011 -2.171,-9.276 -0.111,-11.97c1.468,-1.92 5.368,-3.085 10.98,-3.282c22.285,-0.782 29.119,-11.08 35.727,-21.039c3.541,-5.336 7.202,-10.853 13.869,-16.02c6.565,-5.087 9.379,-5.182 9.835,-5.156c0.414,0.44 3.346,4.198 2.263,20.727c-0.569,8.67 1.105,15.041 5.117,19.474c5.613,6.203 13.789,6.482 20.358,6.707c2.956,0.101 5.748,0.197 7.772,0.761c6.379,1.776 11.976,1.215 16.472,0.764c2.771,-0.278 5.636,-0.565 6.244,0.1c2.996,3.268 6.417,4.854 10.171,4.77c7.077,-0.195 11.872,-6.041 19.131,-14.89c0.664,-0.809 1.353,-1.648 2.069,-2.516c0.393,-0.476 0.677,-0.728 0.837,-0.852c1.036,0.232 3.336,1.63 4.893,2.577c5.545,3.37 13.925,8.464 24.362,3.992c11.487,-4.922 14.458,-8.571 20.084,-16.356c2.036,-2.817 4.57,-6.324 8.428,-10.922c6.793,-8.1 16.623,-10.455 20.68,-8.579c0.642,0.297 2.596,1.201 1.672,6.612c-1.321,7.734 0.17,13.555 4.43,17.299c7.382,6.487 18.891,2.953 27.295,0.372c1.922,-0.59 4.101,-1.259 5.053,-1.402c0.728,-0.065 2.915,0.468 4.366,0.826c7.271,1.796 22.401,5.527 29.909,-15.927c5.067,-14.477 8.776,-15.022 19.789,-16.639c1.169,-0.172 2.38,-0.35 3.636,-0.551c24.424,-3.908 28.987,-19.9 32.653,-32.751c1.041,-3.649 2.024,-7.095 3.392,-10.25c2.232,-5.153 6.357,-7.798 11.578,-11.146c6.706,-4.301 15.053,-9.653 18.569,-21.611c1.687,-5.734 6.517,-9.021 9.113,-9.867c-0.076,1.463 -0.561,4.071 -2.165,8.007c-5.642,13.847 -6.802,21.492 -4.139,27.269c2.439,5.29 7.32,6.908 10.237,7.874c1.125,0.373 2.188,0.725 2.702,1.079c0,0.001 0.046,0.04 0.13,0.133c2.752,3.095 7.493,3.371 10.589,0.617c3.094,-2.753 3.37,-7.494 0.616,-10.588c-0.853,-0.959 -1.776,-1.785 -2.748,-2.459c-2.336,-1.617 -4.685,-2.395 -6.571,-3.02c-0.408,-0.135 -0.902,-0.299 -1.311,-0.449c0.023,-1.479 0.584,-5.465 4.385,-14.796c4.383,-10.756 4.37,-18.895 -0.035,-24.19c-3.26,-3.919 -8.406,-5.487 -14.117,-4.307c-7.968,1.647 -17.766,9.207 -21.077,20.465c-1.938,6.586 -6.273,9.368 -12.276,13.217c-6.184,3.966 -13.193,8.461 -17.244,17.809c-1.759,4.058 -2.925,8.146 -4.053,12.099c-3.377,11.837 -5.607,19.657 -20.598,22.055c-1.19,0.191 -2.338,0.359 -3.446,0.521c-12.188,1.79 -23.702,3.48 -31.768,26.525c-3.002,8.58 -5.125,8.056 -12.157,6.319c-3.251,-0.802 -6.612,-1.631 -10.166,-1.1c-2.078,0.312 -4.476,1.047 -7.25,1.899c-2.824,0.867 -10.015,3.071 -12.746,2.643c-0.069,-0.556 -0.101,-1.631 0.21,-3.451c1.789,-10.474 -2.009,-18.978 -10.157,-22.75c-11.286,-5.225 -28.188,0.289 -38.473,12.553c-4.204,5.013 -6.914,8.762 -9.091,11.775c-4.591,6.351 -5.681,7.86 -13.836,11.355c-3.035,1.301 -5.457,0.142 -10.661,-3.022c-5.147,-3.129 -15.854,-9.639 -25.086,1.538c-0.728,0.881 -1.428,1.734 -2.102,2.556c-2.548,3.106 -5.589,6.814 -7.53,8.601c-5.543,-5.234 -12.372,-4.548 -17.916,-3.993c-3.749,0.376 -7.288,0.731 -10.951,-0.289c-3.748,-1.044 -7.579,-1.175 -11.284,-1.302c-3.936,-0.134 -8.397,-0.287 -9.749,-1.781c-0.511,-0.565 -1.659,-2.517 -1.271,-8.427c0.804,-12.261 0.621,-29.227 -10.206,-34.981c-10.418,-5.535 -22.183,3.577 -26.048,6.572c-8.615,6.677 -13.363,13.833 -17.179,19.583c-5.918,8.918 -9.177,13.83 -23.755,14.341c-10.475,0.368 -18,3.45 -22.369,9.161c-6.366,8.324 -3.808,19.25 -2.579,24.502c0.809,3.459 3.891,5.793 7.296,5.793zm221.751,7.191c-1.771,2.033 -4.327,3.199 -7.013,3.199s-5.242,-1.165 -7.013,-3.198c-2.722,-3.123 -7.459,-3.448 -10.581,-0.727c-3.123,2.721 -3.448,7.458 -0.727,10.582c4.621,5.303 11.298,8.344 18.321,8.344c7.022,0 13.7,-3.041 18.321,-8.343c2.722,-3.123 2.396,-7.86 -0.727,-10.582c-3.121,-2.723 -7.859,-2.398 -10.581,0.725zm234.072,-54.15c-2.111,-2.614 -4.181,-4.971 -6.182,-7.251c-9.085,-10.349 -11.8,-14.237 -9.169,-20.696c0.599,-1.466 1.127,-3.038 1.57,-4.67c1.085,-3.997 -1.275,-8.118 -5.272,-9.204c-3.994,-1.083 -8.118,1.274 -9.203,5.272c-0.284,1.045 -0.615,2.033 -0.984,2.939c-6.353,15.591 2.868,26.096 11.785,36.254c1.901,2.166 3.868,4.406 5.785,6.78c6.598,8.168 10.986,21.525 11.566,27.89c-15.515,-4.033 -24.177,-11.227 -25.764,-21.412l-0.415,-2.705c-1.828,-12.018 -3.719,-24.445 -14.254,-27.078c-6.619,-1.653 -15.156,0.544 -20.765,5.346c-4.928,4.221 -7.318,10.113 -6.729,16.588c0.183,2.018 0.454,4.135 0.741,6.376c1.003,7.822 2.518,19.642 -1.845,22.626c-10.791,7.384 -11.949,18.867 -13.176,31.024c-0.265,2.631 -0.539,5.351 -0.915,8.166c-1.069,8.025 1.812,12.284 4.418,14.444c6.565,5.44 15.978,2.329 23.54,-0.173c1.683,-0.556 3.271,-1.082 4.442,-1.375c2.717,-0.679 6.551,4.118 12.048,15.11c1.607,3.216 3.393,5.974 4.968,8.408c5.202,8.037 9.31,14.384 4.692,36.055c-2.014,9.449 -4.939,12.54 -5.877,13.045c-0.714,-0.465 -2.012,-2.6 -1.224,-5.161c3.33,-10.821 3.25,-19.216 -0.239,-24.953c-2.273,-3.736 -5.807,-6.134 -10.221,-6.935c-4.456,-0.808 -7.263,-0.192 -10.355,2.275c-0.782,0.623 -2.86,2.281 -13.335,4.069c-11.758,2.008 -14.032,0.142 -19.532,-4.365c-2.498,-2.047 -5.607,-4.596 -9.92,-7.083c-7.307,-4.214 -12.607,-3.072 -15.769,-1.371c-9.258,4.983 -10.563,19.161 -11.926,41.881c-0.192,3.198 -0.878,5.428 -1.932,6.28c-2.386,1.93 -9.986,0.772 -16.094,-0.157c-7.249,-1.105 -15.465,-2.355 -22.967,-0.64c-10.205,2.333 -17.575,-0.322 -23.499,-2.456c-3.52,-1.268 -6.56,-2.362 -9.808,-2.362c-7.836,0 -10.002,7.61 -10.927,10.86c-0.322,1.132 -0.907,3.188 -1.398,3.844c-0.37,0.057 -1.743,0.145 -4.734,-0.907c-15.176,-5.332 -24.242,0.355 -30.241,4.117c-3.232,2.028 -5.162,3.175 -7.223,3.175c-6.754,0 -22.929,-1.715 -27.223,-17.604c-4.306,-15.932 -16.718,-17.144 -23.386,-17.796c-0.731,-0.071 -1.612,-0.157 -2.349,-0.258c-2.678,-15.611 -18.916,-16.368 -39.281,-17.315c-13.45,-0.626 -19.646,2.997 -21.392,12.506c-0.061,0.328 -0.136,0.741 -0.204,1.028c-0.26,0.132 -0.771,0.347 -1.662,0.569c-9.461,2.364 -19.19,-9.593 -20.364,-13.221c-1.998,-6.176 -8.961,-15.895 -33.143,-11.576c-13.463,2.404 -14.335,15.562 -14.803,22.631c-0.069,1.04 -0.158,2.386 -0.285,3.5c-9.114,0.793 -13.327,10.324 -16.176,17.145c-2.012,-6.888 -6.045,-16.131 -18.313,-22.912c-3.166,-1.75 -6.979,-4.635 -7.162,-8.444c-0.098,-2.063 0.843,-3.831 1.566,-4.7c5.528,0.14 21.878,-0.364 28.69,-10.683c2.858,-4.33 4.984,-11.817 -1.121,-22.901c-3.05,-5.537 -4.078,-11.236 -3.143,-17.423c0.619,-4.096 -2.2,-7.918 -6.295,-8.537c-4.093,-0.615 -7.917,2.2 -8.536,6.295c-1.426,9.436 0.201,18.487 4.836,26.902c1.887,3.426 2.538,6.192 1.742,7.399c-2.112,3.199 -12.053,4.378 -16.544,3.931c-7.035,-0.701 -13.085,6.141 -15.205,12.938c-1.289,4.134 -4.095,18.397 13.917,28.352c8.927,4.933 10.491,11.131 12.004,17.125c1.202,4.761 3.018,11.956 10.727,13.499c9.606,1.921 13.722,-7.963 16.446,-14.503c1.067,-2.559 2.997,-7.19 4.368,-8.492c4.021,0.245 6.75,-1.286 8.346,-2.644c4.367,-3.714 4.759,-9.633 5.105,-14.856c0.486,-7.332 1.127,-8.616 2.473,-8.856c10.864,-1.94 15.724,-0.153 16.235,1.428c3.325,10.275 19.852,27.758 38.273,23.154c11.02,-2.754 12.344,-9.973 12.981,-13.442c0.003,-0.015 0.005,-0.03 0.008,-0.045c0.943,-0.165 2.745,-0.333 5.933,-0.185c9.5,0.442 17.725,0.924 22.168,2.35c2.892,0.928 2.96,1.607 3.124,3.249c1.05,10.501 10.862,11.459 15.578,11.919c6.233,0.608 8.824,1.083 10.364,6.78c7.195,26.622 33.739,28.691 41.703,28.691c6.477,0 11.31,-3.032 15.194,-5.468c5.383,-3.377 8.939,-5.608 17.297,-2.671c6.738,2.366 12.188,2.392 16.661,0.076c5.545,-2.871 7.492,-8.336 8.592,-12.087c0.519,0.182 1.035,0.368 1.504,0.537c6.942,2.5 17.433,6.276 31.924,2.966c4.725,-1.079 11.151,-0.101 17.368,0.846c9.957,1.515 20.25,3.081 27.781,-3.007c4.499,-3.637 7.014,-9.373 7.474,-17.046c0.528,-8.807 1.483,-24.725 3.889,-29.086c0.33,0.135 0.772,0.345 1.337,0.671c3.25,1.875 5.618,3.815 7.909,5.693c7.893,6.468 14.35,10.486 31.564,7.549c11.159,-1.905 15.837,-4.068 18.735,-6.064c0.461,1.236 0.831,5.005 -1.447,12.411c-2.163,7.03 -0.354,14.827 4.611,19.864c4.1,4.158 9.705,5.718 15.005,4.171c5.495,-1.604 12.815,-7.137 16.49,-24.381c5.911,-27.738 -0.535,-37.699 -6.77,-47.331c-1.495,-2.311 -2.908,-4.494 -4.144,-6.966c-5.024,-10.05 -13.438,-26.866 -29.102,-22.954c-1.712,0.428 -3.559,1.039 -5.515,1.685c-2.104,0.696 -5.975,1.976 -8.426,2.34c0.013,-0.122 0.028,-0.251 0.047,-0.388c0.407,-3.053 0.693,-5.895 0.971,-8.644c1.138,-11.28 1.898,-16.849 6.722,-20.149c11.936,-8.167 9.808,-24.781 8.253,-36.913c-0.27,-2.101 -0.523,-4.085 -0.683,-5.828c-0.148,-1.633 0.315,-2.781 1.549,-3.838c2.151,-1.842 5.471,-2.41 6.984,-2.25c1.497,2.029 2.664,9.699 3.447,14.846l0.423,2.758c1.891,12.136 10.505,27.985 40.806,34.571c5.235,1.141 9.941,-0.742 12.587,-5.03c6.954,-11.261 -4.271,-37.317 -12.698,-47.751zm-289.131,43.249c-4.142,0 -7.5,3.358 -7.5,7.5l0,7.976c0,4.142 3.358,7.5 7.5,7.5s7.5,-3.358 7.5,-7.5l0,-7.976c0,-4.143 -3.358,-7.5 -7.5,-7.5z"/>
  </g>
 </g>
</svg>