<svg width="480" height="480" xmlns="http://www.w3.org/2000/svg">

 <g>
  <title>background</title>
  <rect fill="none" id="canvas_background" height="402" width="582" y="-1" x="-1"/>
 </g>
 <g>
  <title>Layer 1</title>
  <g id="svg_1">
   <path id="svg_2" fill="#ffffff" class="active-path" d="m456,72l-104,0l0,-32c-0.027344,-22.082031 -17.917969,-39.972656 -40,-40l-144,0c-22.082031,0.027344 -39.972656,17.917969 -40,40l0,32l-104,0c-13.253906,0 -24,10.746094 -24,24l0,178.078125c0.050781,10.148437 6.445312,19.175781 16,22.585937l0,111.335938c0,13.253906 10.746094,24 24,24l400,0c13.253906,0 24,-10.746094 24,-24l0,-111.328125c9.554688,-3.414063 15.953125,-12.445313 16,-22.59375l0,-178.078125c0,-13.253906 -10.746094,-24 -24,-24zm-312,-32c0,-13.253906 10.746094,-24 24,-24l144,0c13.253906,0 24,10.746094 24,24l0,32l-16,0l0,-32c0,-4.417969 -3.582031,-8 -8,-8l-144,0c-4.417969,0 -8,3.582031 -8,8l0,32l-16,0l0,-32zm160,32l-128,0l0,-24l128,0l0,24zm144,336c0,4.417969 -3.582031,8 -8,8l-400,0c-4.417969,0 -8,-3.582031 -8,-8l0,-108.585938l176,24.273438l0,20.3125c0,13.253906 10.746094,24 24,24l16,0c13.253906,0 24,-10.746094 24,-24l0,-20.3125l176,-24.273438l0,108.585938zm-192,-64c0,4.417969 -3.582031,8 -8,8l-16,0c-4.417969,0 -8,-3.582031 -8,-8l0,-48c0,-4.417969 3.582031,-8 8,-8l16,0c4.417969,0 8,3.582031 8,8l0,48zm208,-69.921875c0.003906,3.988281 -2.929688,7.371094 -6.878906,7.929687l-2.21875,0.304688l-182.902344,25.222656l0,-11.535156c0,-13.253906 -10.746094,-24 -24,-24l-16,0c-13.253906,0 -24,10.746094 -24,24l0,11.535156l-185.113281,-25.527344c-3.949219,-0.554687 -6.890625,-3.9375 -6.886719,-7.929687l0,-178.078125c0,-4.417969 3.582031,-8 8,-8l432,0c4.417969,0 8,3.582031 8,8l0,178.078125zm0,0"/>
  </g>
 </g>
</svg>